<svg xmlns="http://www.w3.org/2000/svg" viewBox="0 0 400 96.13"><defs><style>.cls-1{fill:#f7cf9b;}.cls-2{fill:#212121;}</style></defs><title>logo-OldNorth-H</title><g id="Layer_2" data-name="Layer 2"><g id="Layer_1-2" data-name="Layer 1"><polygon class="cls-1" points="0 96.13 0 0 95.51 0 95.51 63.71 91.75 63.71 91.75 4.37 3.83 4.37 3.83 92.34 16.64 92.34 16.64 96.13 0 96.13"/><polygon class="cls-1" points="46.82 96.04 46.82 25.77 33.71 25.77 33.71 95.94 29.79 95.94 29.79 21.78 50.8 21.78 50.8 92.06 91.6 92.06 91.6 79.87 65.32 79.87 65.32 75.9 95.55 75.9 95.55 96.04 46.82 96.04"/><path class="cls-1" d="M144.38,58.92a21.15,21.15,0,0,1-8.81-1.74,18.18,18.18,0,0,1-6.47-4.85,21.33,21.33,0,0,1-4-7.41,31.23,31.23,0,0,1-1.36-9.45,29,29,0,0,1,1.41-9.15,22.51,22.51,0,0,1,4.09-7.43,19,19,0,0,1,6.5-5,20,20,0,0,1,8.72-1.82A20.92,20.92,0,0,1,153.61,14,18.12,18.12,0,0,1,160.05,19a21.34,21.34,0,0,1,3.8,7.43,31.58,31.58,0,0,1,1.26,9,31.06,31.06,0,0,1-.53,5.66,26.51,26.51,0,0,1-1.6,5.43,23.38,23.38,0,0,1-2.77,4.86,18,18,0,0,1-4,3.92A19.18,19.18,0,0,1,151,58a21.18,21.18,0,0,1-6.59,1m.62-2.34A11.3,11.3,0,0,0,151,55a12.88,12.88,0,0,0,4.26-4.24,20.53,20.53,0,0,0,2.57-6.36,34.06,34.06,0,0,0,.87-7.89,41.55,41.55,0,0,0-.9-8.95,22.09,22.09,0,0,0-2.73-7,13.36,13.36,0,0,0-4.64-4.55,12.82,12.82,0,0,0-6.6-1.63,11.22,11.22,0,0,0-6.2,1.66,13.15,13.15,0,0,0-4.23,4.41,20.7,20.7,0,0,0-2.4,6.34,35.92,35.92,0,0,0-.77,7.5,41.61,41.61,0,0,0,.88,8.85,22.51,22.51,0,0,0,2.7,7,13.8,13.8,0,0,0,4.6,4.67A12.58,12.58,0,0,0,145,56.58"/><path class="cls-1" d="M168,56.45l3.51-.82a1.86,1.86,0,0,0,1.06-.65,1.8,1.8,0,0,0,.41-1.2V15.62a2.34,2.34,0,0,0-.44-1.43,3.19,3.19,0,0,0-1.55-1l-3-1.08v-.88l10.44-2.5v45a1.8,1.8,0,0,0,.41,1.22,1.94,1.94,0,0,0,1.06.63l3.12.82v1.46H168Z"/><path class="cls-1" d="M208.5,53.19a13.76,13.76,0,0,1-2.86,3,12.22,12.22,0,0,1-2.85,1.61,10.3,10.3,0,0,1-2.57.67,18,18,0,0,1-2,.13A11.45,11.45,0,0,1,193,57.41a11.27,11.27,0,0,1-3.89-3.21,14.89,14.89,0,0,1-2.44-4.84,21.26,21.26,0,0,1-.84-6.12,22.87,22.87,0,0,1,1-6.91,17.28,17.28,0,0,1,2.91-5.65,13.55,13.55,0,0,1,10.94-5.2,11.6,11.6,0,0,1,2.54.26,10.06,10.06,0,0,1,2.07.7,8.65,8.65,0,0,1,1.65,1,14,14,0,0,1,1.32,1.15v-13a2.5,2.5,0,0,0-.42-1.45,2.84,2.84,0,0,0-1.56-.95l-3.39-1.08v-.88l10.84-2.5v43.1a2.28,2.28,0,0,0,.44,1.43,3.08,3.08,0,0,0,1.57,1l3,.94v.88l-9.6,2.5h-.65Zm-.23-23a5.27,5.27,0,0,0-1.46-.88,13.28,13.28,0,0,0-1.9-.65,14.49,14.49,0,0,0-1.94-.39,11.32,11.32,0,0,0-1.56-.13,8.58,8.58,0,0,0-4.34,1A9.34,9.34,0,0,0,194,32,12.66,12.66,0,0,0,192.15,36a18.91,18.91,0,0,0-.6,4.83,26,26,0,0,0,.57,5.62,13.64,13.64,0,0,0,1.76,4.43,8.6,8.6,0,0,0,3,2.89,8.71,8.71,0,0,0,4.38,1,10.32,10.32,0,0,0,1.69-.16,10.14,10.14,0,0,0,1.95-.54,8,8,0,0,0,1.87-1,5.44,5.44,0,0,0,1.48-1.58Z"/><path class="cls-1" d="M237.58,56.38l4.13-1.07a2,2,0,0,0,1.09-.7,1.91,1.91,0,0,0,.44-1.22V17.54a1.83,1.83,0,0,0-.44-1.25,2,2,0,0,0-1.09-.67l-4.45-1V13.08h10.92L269.69,44l3.06,4.45V17.61a1.88,1.88,0,0,0-.44-1.26,2.17,2.17,0,0,0-1.09-.66l-4.13-1.08V13.08h14.15v1.53l-4.14,1.08a2.1,2.1,0,0,0-1.1.68,1.8,1.8,0,0,0-.46,1.24V50.46l-1,7.78h-1.82L249.45,24.8l-3.41-5V53.39a1.79,1.79,0,0,0,.44,1.25,2,2,0,0,0,1.09.67l4.13,1.07v1.53H237.58Z"/><path class="cls-1" d="M298.67,58.79a15.55,15.55,0,0,1-6.16-1.17,13,13,0,0,1-4.69-3.35,15.11,15.11,0,0,1-3-5.24,21,21,0,0,1-1.05-6.83,19.85,19.85,0,0,1,1.05-6.52,16,16,0,0,1,3-5.32,13.88,13.88,0,0,1,4.76-3.58,15.06,15.06,0,0,1,6.4-1.3,14.83,14.83,0,0,1,6.63,1.38,13.25,13.25,0,0,1,4.62,3.68,15.49,15.49,0,0,1,2.72,5.3,22,22,0,0,1,.89,6.23,20.29,20.29,0,0,1-1,6.49,16,16,0,0,1-3,5.32,14,14,0,0,1-4.76,3.59,15,15,0,0,1-6.43,1.32m.46-2.15a6.67,6.67,0,0,0,4.29-1.35,9.62,9.62,0,0,0,2.68-3.41,16.36,16.36,0,0,0,1.39-4.51,29.46,29.46,0,0,0,.39-4.65,29,29,0,0,0-.51-5.4,17.47,17.47,0,0,0-1.61-4.86,10,10,0,0,0-2.89-3.52,7.64,7.64,0,0,0-7.35-.73,7.26,7.26,0,0,0-2.28,1.68,9.29,9.29,0,0,0-1.63,2.44,17.15,17.15,0,0,0-1.06,2.92,20.89,20.89,0,0,0-.57,3.14c-.1,1.07-.16,2.08-.16,3.06a33.05,33.05,0,0,0,.18,3.38,23.15,23.15,0,0,0,.62,3.44,19.29,19.29,0,0,0,1.14,3.2,9.93,9.93,0,0,0,1.74,2.67A8.16,8.16,0,0,0,295.92,56a7.22,7.22,0,0,0,3.21.68"/><path class="cls-1" d="M316.92,56.45l3.61-.82a1.93,1.93,0,0,0,1.06-.65,1.79,1.79,0,0,0,.4-1.2V32.41a2.44,2.44,0,0,0-.45-1.47,3.27,3.27,0,0,0-1.56-1l-3-1.08V28l10.12-2.24v7.12c.52-.84,1.09-1.7,1.72-2.58A14.33,14.33,0,0,1,331,27.9a11.67,11.67,0,0,1,2.65-1.74,7.61,7.61,0,0,1,3.24-.68,13.66,13.66,0,0,1,1.56.08,10.77,10.77,0,0,1,1.17.21,8.66,8.66,0,0,1,1,.31c.3.12.64.24,1,.37v7.62h-1.66l-1-2.74a1.27,1.27,0,0,0-.56-.57,4.19,4.19,0,0,0-1-.39,9.05,9.05,0,0,0-1.13-.22,7.46,7.46,0,0,0-1.09-.08,8,8,0,0,0-2.22.29,8.6,8.6,0,0,0-2,.84,9.68,9.68,0,0,0-1.81,1.4,17.33,17.33,0,0,0-1.67,1.95V53.78a1.88,1.88,0,0,0,.4,1.24,1.82,1.82,0,0,0,1.06.61l4.2.82v1.46h-16.2Z"/><path class="cls-1" d="M347.92,29.19h-5.08v-1.6q1.28-.32,2.28-.6a6,6,0,0,0,1.74-.76A3.45,3.45,0,0,0,348,24.89a6.26,6.26,0,0,0,.52-2.31l.23-4,4.61-1v9h11.13l-.94,2.61H353.38V51.41a2.25,2.25,0,0,0,.66,1.64,5.46,5.46,0,0,0,1.57,1.1,7.76,7.76,0,0,0,2,.64,9.68,9.68,0,0,0,1.8.19,6.37,6.37,0,0,0,1.17-.11c.44-.08.86-.16,1.27-.26a10.86,10.86,0,0,0,1.12-.33,7.4,7.4,0,0,0,.77-.3H364V55.7c-.3.19-.72.45-1.25.76a15.14,15.14,0,0,1-1.85.93,16.59,16.59,0,0,1-2.35.78,10.82,10.82,0,0,1-2.71.33,11,11,0,0,1-3.17-.43,7.53,7.53,0,0,1-2.51-1.22,5.68,5.68,0,0,1-1.66-2,6,6,0,0,1-.6-2.75Z"/><path class="cls-1" d="M364.77,56.45l3.51-.82a1.9,1.9,0,0,0,1.08-.63,1.79,1.79,0,0,0,.39-1.19V15.62a2.34,2.34,0,0,0-.44-1.43,3.19,3.19,0,0,0-1.55-1l-3-1.08v-.88l10.44-2.5V31a18,18,0,0,1,2.65-2.91,11.74,11.74,0,0,1,2.52-1.68,8.79,8.79,0,0,1,2.44-.76,16.59,16.59,0,0,1,2.44-.18,12.18,12.18,0,0,1,3.94.63,8.67,8.67,0,0,1,3.24,2,9.49,9.49,0,0,1,2.18,3.48,14.59,14.59,0,0,1,.79,5.09v17a2,2,0,0,0,.43,1.32,1.93,1.93,0,0,0,1,.66l3.12.82v1.46H384.94V56.45l3.61-.82a1.66,1.66,0,0,0,1-.65,2.09,2.09,0,0,0,.41-1.33V38.72a27.85,27.85,0,0,0-.26-3.95,8.09,8.09,0,0,0-1-3,5.16,5.16,0,0,0-2.14-1.94,8.33,8.33,0,0,0-3.63-.68,11.16,11.16,0,0,0-2,.2,10.66,10.66,0,0,0-2.07.6A9.44,9.44,0,0,0,376.85,31a7.8,7.8,0,0,0-1.64,1.56V53.78a1.8,1.8,0,0,0,.41,1.22,1.94,1.94,0,0,0,1.06.63l3.12.82v1.46h-15Z"/><path class="cls-2" d="M232,77.85a4.44,4.44,0,0,0-.57-1.2,3.8,3.8,0,0,0-.83-.91,3.6,3.6,0,0,0-1.1-.57,4.45,4.45,0,0,0-1.35-.2,4,4,0,0,0-2.18.62,4.23,4.23,0,0,0-1.56,1.83,7.84,7.84,0,0,0,0,5.92A4.34,4.34,0,0,0,226,85.17a4.24,4.24,0,0,0,2.26.62,4.18,4.18,0,0,0,2-.5,3.47,3.47,0,0,0,1.38-1.41,4.48,4.48,0,0,0,.5-2.16l.5.11h-4.06V80.38h5.14v1.45a5.74,5.74,0,0,1-.71,2.9,4.91,4.91,0,0,1-1.95,1.91,6.29,6.29,0,0,1-6-.17,5.63,5.63,0,0,1-2.11-2.4,8.44,8.44,0,0,1-.76-3.69,9,9,0,0,1,.44-2.89,6.17,6.17,0,0,1,1.22-2.18,5.29,5.29,0,0,1,1.87-1.39,5.82,5.82,0,0,1,2.38-.48,6.21,6.21,0,0,1,2,.32,5.48,5.48,0,0,1,1.65.9,5.28,5.28,0,0,1,1.89,3.19Z"/><path class="cls-2" d="M240.23,87.13V73.63h4.56a5.64,5.64,0,0,1,2.6.53,3.48,3.48,0,0,1,1.51,1.48,4.58,4.58,0,0,1,.48,2.13,4.5,4.5,0,0,1-.48,2.11,3.45,3.45,0,0,1-1.5,1.45,5.55,5.55,0,0,1-2.58.53h-3.69V80.38h3.64a4.06,4.06,0,0,0,1.74-.32,2,2,0,0,0,1-.9,3,3,0,0,0,.3-1.39,3.16,3.16,0,0,0-.3-1.42,2.06,2.06,0,0,0-1-.94,4,4,0,0,0-1.76-.33h-2.87v12Zm6.36-6.07,3.32,6.07H248l-3.27-6.07Z"/><path class="cls-2" d="M267.21,80.38a8.3,8.3,0,0,1-.77,3.69,5.78,5.78,0,0,1-2.12,2.4,6,6,0,0,1-6.15,0,5.76,5.76,0,0,1-2.11-2.4,9.23,9.23,0,0,1,0-7.38,5.76,5.76,0,0,1,2.11-2.4,6,6,0,0,1,6.15,0,5.78,5.78,0,0,1,2.12,2.4,8.24,8.24,0,0,1,.77,3.69m-1.58,0a6.73,6.73,0,0,0-.59-3,4.25,4.25,0,0,0-1.57-1.83,4.28,4.28,0,0,0-4.44,0,4.26,4.26,0,0,0-1.58,1.83,7.84,7.84,0,0,0,0,5.92A4.38,4.38,0,0,0,259,85.17a4.28,4.28,0,0,0,4.44,0A4.36,4.36,0,0,0,265,83.34a6.76,6.76,0,0,0,.59-3"/><path class="cls-2" d="M282.53,73.63h1.64v8.94a4.77,4.77,0,0,1-.65,2.47,4.72,4.72,0,0,1-1.83,1.71,6.5,6.5,0,0,1-5.54,0A4.58,4.58,0,0,1,274.32,85a4.68,4.68,0,0,1-.65-2.47V73.63h1.63v8.81a3.47,3.47,0,0,0,.44,1.75A3,3,0,0,0,277,85.4a4.47,4.47,0,0,0,3.87,0,3,3,0,0,0,1.25-1.21,3.47,3.47,0,0,0,.43-1.75Z"/><path class="cls-2" d="M291.15,87.13V73.63h4.56a5.24,5.24,0,0,1,2.6.57,3.53,3.53,0,0,1,1.5,1.54,4.64,4.64,0,0,1,.49,2.16,4.87,4.87,0,0,1-.48,2.17,3.56,3.56,0,0,1-1.5,1.55,5.08,5.08,0,0,1-2.58.58h-3.27V80.75h3.22a3.48,3.48,0,0,0,1.74-.38,2.25,2.25,0,0,0,1-1,3.65,3.65,0,0,0,0-2.9,2.23,2.23,0,0,0-1-1,3.76,3.76,0,0,0-1.77-.36h-2.87v12Z"/></g></g></svg>